<svg width="107" height="18" viewBox="0 0 107 18" fill="none" xmlns="http://www.w3.org/2000/svg">
<path d="M1.992 4.174C1.42 4.174 0.950667 3.998 0.584 3.646C0.217333 3.27933 0.034 2.81733 0.034 2.26C0.034 1.70267 0.217333 1.248 0.584 0.895999C0.950667 0.529333 1.42 0.345999 1.992 0.345999C2.564 0.345999 3.03333 0.529333 3.4 0.895999C3.76667 1.248 3.95 1.70267 3.95 2.26C3.95 2.81733 3.76667 3.27933 3.4 3.646C3.03333 3.998 2.564 4.174 1.992 4.174ZM0.364 5.736H3.62V17H0.364V5.736ZM11.1327 17.396C9.46066 17.396 8.14799 17.0293 7.19466 16.296C6.24132 15.548 5.76466 14.5287 5.76466 13.238H8.64666C8.64666 13.8393 8.87399 14.3233 9.32866 14.69C9.79799 15.0567 10.4287 15.24 11.2207 15.24C11.8367 15.24 12.328 15.1153 12.6947 14.866C13.076 14.6167 13.2667 14.2793 13.2667 13.854C13.2667 13.3847 13.0613 13.0767 12.6507 12.93C12.24 12.7687 11.602 12.644 10.7367 12.556C9.78332 12.4533 8.97666 12.3213 8.31666 12.16C7.67132 11.984 7.10666 11.654 6.62266 11.17C6.13866 10.686 5.89666 9.99667 5.89666 9.102C5.89666 7.958 6.35132 7.04867 7.26066 6.374C8.18466 5.68467 9.40199 5.34 10.9127 5.34C11.91 5.34 12.8047 5.494 13.5967 5.802C14.3887 6.11 15.0047 6.55733 15.4447 7.144C15.8847 7.716 16.1047 8.38333 16.1047 9.146H13.1347C13.12 8.64733 12.9073 8.25133 12.4967 7.958C12.1007 7.65 11.5727 7.496 10.9127 7.496C10.3113 7.496 9.82732 7.62067 9.46066 7.87C9.09399 8.10467 8.91066 8.42733 8.91066 8.838C8.91066 9.16067 9.03532 9.41 9.28466 9.586C9.54866 9.74733 9.84199 9.85733 10.1647 9.916C10.502 9.97467 11.0667 10.048 11.8587 10.136C12.724 10.2387 13.4793 10.3927 14.1247 10.598C14.7847 10.7887 15.3347 11.126 15.7747 11.61C16.2293 12.0793 16.4567 12.732 16.4567 13.568C16.4567 14.7707 15.98 15.7093 15.0267 16.384C14.088 17.0587 12.79 17.396 11.1327 17.396ZM21.6837 17.286C20.5104 17.286 19.5644 17 18.8457 16.428C18.1417 15.8413 17.7897 15.0493 17.7897 14.052C17.7897 11.9253 19.5644 10.642 23.1137 10.202L25.5117 9.916V9.454C25.5117 8.91133 25.3284 8.47867 24.9617 8.156C24.6097 7.81867 24.1111 7.65 23.4657 7.65C22.8644 7.65 22.3804 7.81133 22.0137 8.134C21.6471 8.442 21.4711 8.87467 21.4857 9.432H18.2957C18.2957 8.2 18.7651 7.21733 19.7037 6.484C20.6571 5.75067 21.9257 5.384 23.5097 5.384C25.1084 5.384 26.3844 5.76533 27.3377 6.528C28.2911 7.276 28.7677 8.288 28.7677 9.564V17H25.5117V15.57H25.2917C24.9397 16.1273 24.4484 16.5527 23.8177 16.846C23.2017 17.1393 22.4904 17.286 21.6837 17.286ZM22.7617 15.152C23.5684 15.152 24.2284 14.9173 24.7417 14.448C25.2551 13.9787 25.5117 13.392 25.5117 12.688V11.896L23.2017 12.182C22.4391 12.27 21.8744 12.4607 21.5077 12.754C21.1557 13.0327 20.9797 13.3773 20.9797 13.788C20.9797 14.2133 21.1337 14.5507 21.4417 14.8C21.7644 15.0347 22.2044 15.152 22.7617 15.152ZM34.2736 17.286C33.1002 17.286 32.1542 17 31.4356 16.428C30.7316 15.8413 30.3796 15.0493 30.3796 14.052C30.3796 11.9253 32.1542 10.642 35.7036 10.202L38.1016 9.916V9.454C38.1016 8.91133 37.9182 8.47867 37.5516 8.156C37.1996 7.81867 36.7009 7.65 36.0556 7.65C35.4542 7.65 34.9702 7.81133 34.6036 8.134C34.2369 8.442 34.0609 8.87467 34.0756 9.432H30.8856C30.8856 8.2 31.3549 7.21733 32.2936 6.484C33.2469 5.75067 34.5156 5.384 36.0996 5.384C37.6982 5.384 38.9742 5.76533 39.9276 6.528C40.8809 7.276 41.3576 8.288 41.3576 9.564V17H38.1016V15.57H37.8816C37.5296 16.1273 37.0382 16.5527 36.4076 16.846C35.7916 17.1393 35.0802 17.286 34.2736 17.286ZM35.3516 15.152C36.1582 15.152 36.8182 14.9173 37.3316 14.448C37.8449 13.9787 38.1016 13.392 38.1016 12.688V11.896L35.7916 12.182C35.0289 12.27 34.4642 12.4607 34.0976 12.754C33.7456 13.0327 33.5696 13.3773 33.5696 13.788C33.5696 14.2133 33.7236 14.5507 34.0316 14.8C34.3542 15.0347 34.7942 15.152 35.3516 15.152ZM49.3054 17.352C48.1174 17.352 47.0614 17.1027 46.1374 16.604C45.2134 16.1053 44.4874 15.4013 43.9594 14.492C43.4461 13.5827 43.1894 12.5413 43.1894 11.368C43.1894 10.18 43.4461 9.13867 43.9594 8.244C44.4727 7.33467 45.1914 6.63067 46.1154 6.132C47.0394 5.63333 48.1027 5.384 49.3054 5.384C50.3174 5.384 51.2341 5.56733 52.0554 5.934C52.8914 6.286 53.5734 6.792 54.1014 7.452C54.6294 8.112 54.9521 8.882 55.0694 9.762L52.0334 10.158C51.8867 9.542 51.5567 9.04333 51.0434 8.662C50.5447 8.266 49.9801 8.068 49.3494 8.068C48.5134 8.068 47.8167 8.376 47.2594 8.992C46.7167 9.608 46.4454 10.4 46.4454 11.368C46.4454 12.336 46.7167 13.128 47.2594 13.744C47.8021 14.36 48.4914 14.668 49.3274 14.668C49.9727 14.668 50.5447 14.4773 51.0434 14.096C51.5421 13.7 51.8721 13.2013 52.0334 12.6L55.0914 12.974C54.9594 13.854 54.6221 14.624 54.0794 15.284C53.5514 15.944 52.8694 16.4573 52.0334 16.824C51.2121 17.176 50.3027 17.352 49.3054 17.352ZM57.5417 5.89H59.3237V7.386H59.5217C59.771 6.88733 60.1743 6.47667 60.7317 6.154C61.289 5.83133 61.8757 5.67 62.4917 5.67C63.049 5.67 63.5037 5.76533 63.8557 5.956V7.65C63.3423 7.43 62.7923 7.32 62.2057 7.32C61.3697 7.32 60.6877 7.66467 60.1597 8.354C59.6317 9.02867 59.3677 9.916 59.3677 11.016V17H57.5417V5.89ZM71.1382 17.44C69.9795 17.44 68.9455 17.1833 68.0362 16.67C67.1415 16.1567 66.4375 15.4453 65.9242 14.536C65.4255 13.6267 65.1762 12.5927 65.1762 11.434C65.1762 10.2753 65.4255 9.24867 65.9242 8.354C66.4375 7.44467 67.1415 6.73333 68.0362 6.22C68.9455 5.70667 69.9795 5.45 71.1382 5.45C72.2822 5.45 73.3088 5.70667 74.2182 6.22C75.1275 6.73333 75.8315 7.44467 76.3302 8.354C76.8435 9.26333 77.1002 10.29 77.1002 11.434C77.1002 12.5927 76.8435 13.6267 76.3302 14.536C75.8315 15.4453 75.1275 16.1567 74.2182 16.67C73.3088 17.1833 72.2822 17.44 71.1382 17.44ZM71.1382 15.79C71.9302 15.79 72.6415 15.6067 73.2722 15.24C73.9028 14.8587 74.3942 14.338 74.7462 13.678C75.0982 13.018 75.2742 12.27 75.2742 11.434C75.2742 10.6127 75.0982 9.872 74.7462 9.212C74.3942 8.552 73.9028 8.03867 73.2722 7.672C72.6415 7.29067 71.9302 7.1 71.1382 7.1C70.3462 7.1 69.6348 7.29067 69.0042 7.672C68.3735 8.03867 67.8822 8.552 67.5302 9.212C67.1782 9.872 67.0022 10.6127 67.0022 11.434C67.0022 12.27 67.1782 13.018 67.5302 13.678C67.8822 14.338 68.3735 14.8587 69.0042 15.24C69.6348 15.6067 70.3462 15.79 71.1382 15.79ZM84.4394 17.44C82.8407 17.44 81.6014 17.0733 80.7214 16.34C79.8414 15.592 79.4014 14.558 79.4014 13.238H81.1614C81.1761 14.0447 81.4767 14.69 82.0634 15.174C82.6647 15.658 83.4787 15.9 84.5054 15.9C85.3414 15.9 86.0087 15.7387 86.5074 15.416C87.0061 15.0787 87.2554 14.6167 87.2554 14.03C87.2554 13.5753 87.1161 13.238 86.8374 13.018C86.5587 12.7833 86.2287 12.622 85.8474 12.534C85.4661 12.446 84.8721 12.3507 84.0654 12.248C82.7307 12.0867 81.6527 11.7787 80.8314 11.324C80.0101 10.8547 79.5994 10.0553 79.5994 8.926C79.5994 7.85533 80.0027 7.012 80.8094 6.396C81.6307 5.76533 82.7161 5.45 84.0654 5.45C85.4587 5.45 86.5807 5.79467 87.4314 6.484C88.2967 7.15867 88.7294 8.068 88.7294 9.212H86.9474C86.9327 8.53733 86.6614 8.002 86.1334 7.606C85.6054 7.19533 84.9087 6.99 84.0434 6.99C83.2367 6.99 82.5841 7.15867 82.0854 7.496C81.5867 7.83333 81.3374 8.288 81.3374 8.86C81.3374 9.28533 81.4694 9.61533 81.7334 9.85C82.0121 10.07 82.3421 10.224 82.7234 10.312C83.1194 10.3853 83.7061 10.466 84.4834 10.554C85.3487 10.6567 86.0967 10.818 86.7274 11.038C87.3727 11.2433 87.9081 11.588 88.3334 12.072C88.7587 12.5413 88.9714 13.1867 88.9714 14.008C88.9714 15.0933 88.5681 15.9367 87.7614 16.538C86.9694 17.1393 85.8621 17.44 84.4394 17.44ZM96.4277 17.44C94.829 17.44 93.5897 17.0733 92.7097 16.34C91.8297 15.592 91.3897 14.558 91.3897 13.238H93.1497C93.1644 14.0447 93.465 14.69 94.0517 15.174C94.653 15.658 95.467 15.9 96.4937 15.9C97.3297 15.9 97.997 15.7387 98.4957 15.416C98.9944 15.0787 99.2437 14.6167 99.2437 14.03C99.2437 13.5753 99.1044 13.238 98.8257 13.018C98.547 12.7833 98.217 12.622 97.8357 12.534C97.4544 12.446 96.8604 12.3507 96.0537 12.248C94.719 12.0867 93.641 11.7787 92.8197 11.324C91.9984 10.8547 91.5877 10.0553 91.5877 8.926C91.5877 7.85533 91.991 7.012 92.7977 6.396C93.619 5.76533 94.7044 5.45 96.0537 5.45C97.447 5.45 98.569 5.79467 99.4197 6.484C100.285 7.15867 100.718 8.068 100.718 9.212H98.9357C98.921 8.53733 98.6497 8.002 98.1217 7.606C97.5937 7.19533 96.897 6.99 96.0317 6.99C95.225 6.99 94.5724 7.15867 94.0737 7.496C93.575 7.83333 93.3257 8.288 93.3257 8.86C93.3257 9.28533 93.4577 9.61533 93.7217 9.85C94.0004 10.07 94.3304 10.224 94.7117 10.312C95.1077 10.3853 95.6944 10.466 96.4717 10.554C97.337 10.6567 98.085 10.818 98.7157 11.038C99.361 11.2433 99.8964 11.588 100.322 12.072C100.747 12.5413 100.96 13.1867 100.96 14.008C100.96 15.0933 100.556 15.9367 99.7497 16.538C98.9577 17.1393 97.8504 17.44 96.4277 17.44ZM104.962 3.778C104.581 3.778 104.265 3.65333 104.016 3.404C103.767 3.15467 103.642 2.83933 103.642 2.458C103.642 2.09133 103.767 1.79067 104.016 1.556C104.265 1.30667 104.581 1.182 104.962 1.182C105.343 1.182 105.651 1.29933 105.886 1.534C106.135 1.76867 106.26 2.07667 106.26 2.458C106.26 2.83933 106.135 3.15467 105.886 3.404C105.651 3.65333 105.343 3.778 104.962 3.778ZM104.038 5.89H105.864V17H104.038V5.89Z" fill="#20578E"/>
</svg>
